ffmpeg version N-55863-g9f38fac053-static https://johnvansickle.com/ffmpeg/  Copyright (c) 2000-2021 the FFmpeg developers
  built with gcc 8 (Debian 8.3.0-6)
  configuration: --enable-gpl --enable-version3 --enable-static --disable-debug --disable-ffplay --disable-indev=sndio --disable-outdev=sndio --cc=gcc --enable-fontconfig --enable-frei0r --enable-gnutls --enable-gmp --enable-libgme --enable-gray --enable-libaom --enable-libfribidi --enable-libass --enable-libvmaf --enable-libfreetype --enable-libmp3lame --enable-libopencore-amrnb --enable-libopencore-amrwb --enable-libopenjpeg --enable-librubberband --enable-libsoxr --enable-libspeex --enable-libsrt --enable-libvorbis --enable-libopus --enable-libtheora --enable-libvidstab --enable-libvo-amrwbenc --enable-libvpx --enable-libwebp --enable-libx264 --enable-libx265 --enable-libxml2 --enable-libdav1d --enable-libxvid --enable-libzvbi --enable-libzimg
  libavutil      56. 64.100 / 56. 64.100
  libavcodec     58.119.100 / 58.119.100
  libavformat    58. 65.101 / 58. 65.101
  libavdevice    58. 11.103 / 58. 11.103
  libavfilter     7.100.100 /  7.100.100
  libswscale      5.  8.100 /  5.  8.100
  libswresample   3.  8.100 /  3.  8.100
  libpostproc    55.  8.100 / 55.  8.100
Input #0, mov,mp4,m4a,3gp,3g2,mj2, from '/home/yiaapc5/public_html/f_data/data_userfiles/user_uploads/1134370236/v/1612723625.mp4':
  Metadata:
    major_brand     : mp42
    minor_version   : 0
    compatible_brands: isommp42
    creation_time   : 2021-02-01T07:04:48.000000Z
  Duration: 00:22:22.28, start: 0.000000, bitrate: 1252 kb/s
    Stream #0:0(und): Video: h264 (Main) (avc1 / 0x31637661), yuv420p(tv, bt709), 1280x720 [SAR 1:1 DAR 16:9], 1120 kb/s, 23.98 fps, 23.98 tbr, 24k tbn, 47.95 tbc (default)
    Metadata:
      creation_time   : 2021-02-01T07:04:48.000000Z
      handler_name    : ISO Media file produced by Google Inc. Created on: 01/31/2021.
      vendor_id       : [0][0][0][0]
    Stream #0:1(eng): Audio: aac (LC) (mp4a / 0x6134706D), 44100 Hz, stereo, fltp, 128 kb/s (default)
    Metadata:
      creation_time   : 2021-02-01T07:04:48.000000Z
      handler_name    : ISO Media file produced by Google Inc. Created on: 01/31/2021.
      vendor_id       : [0][0][0][0]
Codec AVOption rc_eq (Set rate control equation. When computing the expression, besides the standard functions defined in the section 'Expression Evaluation', the following functions are available: bits2qp(bits), qp2bits(qp). Also the following constants are available: iTex pTex tex mv fCode iCount mcVar var isI isP isB avgQP qComp avgIITex avgPITex avgPPTex avgBPTex avgTex.) specified for output file #0 (/home/yiaapc5/public_html/f_data/data_userfiles/user_media/1134370236/v/2e165eb15f0e363e712412ad43f2277a.mob.nomob.mp4) has not been used for any stream. The most likely reason is either wrong type (e.g. a video option with no video streams) or that it is a private option of some encoder which was not actually used for any stream.
Stream mapping:
  Stream #0:0 -> #0:0 (h264 (native) -> h264 (libx264))
  Stream #0:1 -> #0:1 (aac (native) -> aac (native))
Press [q] to stop, [?] for help
[libx264 @ 0x6188200] Application has requested 32 threads. Using a thread count greater than 16 is not recommended.
[libx264 @ 0x6188200] using SAR=136/135
[libx264 @ 0x6188200] frame MB size (30x17) > level limit (396)
[libx264 @ 0x6188200] VBV bitrate (10000) > level limit (768)
[libx264 @ 0x6188200] VBV buffer (10000) > level limit (2000)
[libx264 @ 0x6188200] MB rate (12227) > level limit (11880)
[libx264 @ 0x6188200] using cpu capabilities: MMX2 SSE2Fast SSSE3 SSE4.2 AVX
[libx264 @ 0x6188200] profile Constrained Baseline, level 1.3, 4:2:0, 8-bit
[libx264 @ 0x6188200] 264 - core 161 r3040 35417dc - H.264/MPEG-4 AVC codec - Copyleft 2003-2021 - http://www.videolan.org/x264.html - options: cabac=0 ref=1 deblock=1:0:0 analyse=0x1:0 me=hex subme=1 psy=1 psy_rd=1.00:0.00 mixed_ref=0 me_range=16 chroma_me=1 trellis=0 8x8dct=0 cqm=0 deadzone=21,11 fast_pskip=1 chroma_qp_offset=0 threads=32 lookahead_threads=2 sliced_threads=0 nr=0 decimate=1 interlaced=0 bluray_compat=0 constrained_intra=0 bframes=0 weightp=0 keyint=300 keyint_min=25 scenecut=40 intra_refresh=0 rc_lookahead=30 rc=abr mbtree=1 bitrate=1000 ratetol=1.0 qcomp=0.60 qpmin=10 qpmax=51 qpstep=4 vbv_maxrate=10000 vbv_bufsize=10000 nal_hrd=none filler=0 ip_ratio=1.41 aq=1:1.00
Output #0, mp4, to '/home/yiaapc5/public_html/f_data/data_userfiles/user_media/1134370236/v/2e165eb15f0e363e712412ad43f2277a.mob.nomob.mp4':
  Metadata:
    major_brand     : mp42
    minor_version   : 0
    compatible_brands: isommp42
    encoder         : Lavf58.65.101
    Stream #0:0(und): Video: h264 (avc1 / 0x31637661), yuv420p(tv, bt709, progressive), 480x272 [SAR 136:135 DAR 16:9], q=2-31, 1000 kb/s, 23.98 fps, 24k tbn (default)
    Metadata:
      creation_time   : 2021-02-01T07:04:48.000000Z
      handler_name    : ISO Media file produced by Google Inc. Created on: 01/31/2021.
      vendor_id       : [0][0][0][0]
      encoder         : Lavc58.119.100 libx264
    Side data:
      cpb: bitrate max/min/avg: 10000000/0/1000000 buffer size: 10000000 vbv_delay: N/A
    Stream #0:1(eng): Audio: aac (LC) (mp4a / 0x6134706D), 44100 Hz, stereo, fltp, 128 kb/s (default)
    Metadata:
      creation_time   : 2021-02-01T07:04:48.000000Z
      handler_name    : ISO Media file produced by Google Inc. Created on: 01/31/2021.
      vendor_id       : [0][0][0][0]
      encoder         : Lavc58.119.100 aac
frame=    1 fps=0.0 q=0.0 size=       0kB time=00:00:00.41 bitrate=   0.9kbits/s speed= 8.7x    frame=  180 fps=0.0 q=32.0 size=     512kB time=00:00:07.77 bitrate= 539.3kbits/s speed=14.2x    frame=  358 fps=342 q=24.0 size=    1280kB time=00:00:15.44 bitrate= 679.1kbits/s speed=14.7x    frame=  556 fps=359 q=29.0 size=    2816kB time=00:00:23.35 bitrate= 987.6kbits/s speed=15.1x    frame=  754 fps=368 q=27.0 size=    3840kB time=00:00:31.64 bitrate= 994.0kbits/s speed=15.4x    frame=  941 fps=369 q=27.0 size=    4864kB time=00:00:39.65 bitrate=1004.7kbits/s speed=15.6x    frame= 1139 fps=374 q=26.0 size=    5888kB time=00:00:47.85 bitrate=1007.9kbits/s speed=15.7x    frame= 1337 fps=377 q=27.0 size=    7168kB time=00:00:55.98 bitrate=1048.9kbits/s speed=15.8x    frame= 1535 fps=379 q=26.0 size=    8192kB time=00:01:04.29 bitrate=1043.8kbits/s speed=15.9x    frame= 1733 fps=381 q=26.0 size=    9216kB time=00:01:12.56 bitrate=1040.5kbits/s speed=15.9x    frame= 1936 fps=383 q=24.0 size=   10240kB time=00:01:21.15 bitrate=1033.7kbits/s speed=16.1x    frame= 2139 fps=385 q=24.0 size=   11264kB time=00:01:29.39 bitrate=1032.2kbits/s speed=16.1x    frame= 2338 fps=386 q=24.0 size=   12288kB time=00:01:38.05 bitrate=1026.6kbits/s speed=16.2x    frame= 2536 fps=387 q=26.0 size=   14080kB time=00:01:46.23 bitrate=1085.8kbits/s speed=16.2x    frame= 2734 fps=388 q=27.0 size=   15616kB time=00:01:54.38 bitrate=1118.4kbits/s speed=16.2x    frame= 2934 fps=388 q=27.0 size=   16384kB time=00:02:02.94 bitrate=1091.7kbits/s speed=16.3x    frame= 3140 fps=390 q=28.0 size=   17920kB time=00:02:11.19 bitrate=1119.0kbits/s speed=16.3x    frame= 3344 fps=391 q=29.0 size=   19456kB time=00:02:19.90 bitrate=1139.3kbits/s speed=16.4x    frame= 3553 fps=392 q=30.0 size=   20992kB time=00:02:28.60 bitrate=1157.2kbits/s speed=16.4x    frame= 3757 fps=393 q=30.0 size=   22272kB time=00:02:37.31 bitrate=1159.8kbits/s speed=16.5x    frame= 3966 fps=394 q=30.0 size=   23296kB time=00:02:45.58 bitrate=1152.6kbits/s speed=16.5x    frame= 4164 fps=394 q=30.0 size=   24576kB time=00:02:53.87 bitrate=1157.9kbits/s speed=16.5x    frame= 4371 fps=395 q=30.0 size=   25600kB time=00:03:02.60 bitrate=1148.5kbits/s speed=16.5x    frame= 4571 fps=395 q=30.0 size=   26880kB time=00:03:11.30 bitrate=1151.0kbits/s speed=16.6x    frame= 4777 fps=396 q=30.0 size=   27904kB time=00:03:19.57 bitrate=1145.4kbits/s speed=16.5x    frame= 4983 fps=397 q=29.0 size=   28672kB time=00:03:28.28 bitrate=1127.7kbits/s speed=16.6x    frame= 5177 fps=396 q=29.0 size=   29952kB time=00:03:36.52 bitrate=1133.2kbits/s speed=16.6x    frame= 5385 fps=397 q=29.0 size=   31232kB time=00:03:44.79 bitrate=1138.2kbits/s speed=16.6x    frame= 5585 fps=397 q=29.0 size=   32000kB time=00:03:53.47 bitrate=1122.8kbits/s speed=16.6x    frame= 5792 fps=398 q=28.0 size=   33024kB time=00:04:01.74 bitrate=1119.1kbits/s speed=16.6x    frame= 5996 fps=398 q=27.0 size=   33792kB time=00:04:10.45 bitrate=1105.3kbits/s speed=16.6x    frame= 6194 fps=398 q=26.0 size=   34560kB time=00:04:18.76 bitrate=1094.1kbits/s speed=16.6x    frame= 6392 fps=398 q=23.0 size=   34816kB time=00:04:27.02 bitrate=1068.1kbits/s speed=16.6x    frame= 6595 fps=398 q=23.0 size=   35584kB time=00:04:35.27 bitrate=1059.0kbits/s speed=16.6x    frame= 6793 fps=398 q=25.0 size=   37632kB time=00:04:43.60 bitrate=1087.0kbits/s speed=16.6x    frame= 6991 fps=398 q=26.0 size=   39168kB time=00:04:52.10 bitrate=1098.4kbits/s speed=16.6x    frame= 7189 fps=398 q=28.0 size=   40960kB time=00:05:00.02 bitrate=1118.4kbits/s speed=16.6x    frame= 7387 fps=398 q=28.0 size=   42240kB time=00:05:08.54 bitrate=1121.5kbits/s speed=16.6x    frame= 7584 fps=398 q=28.0 size=   43520kB time=00:05:16.53 bitrate=1126.3kbits/s speed=16.6x    frame= 7782 fps=398 q=28.0 size=   44544kB time=00:05:24.84 bitrate=1123.3kbits/s speed=16.6x    frame= 7978 fps=397 q=29.0 size=   45824kB time=00:05:33.09 bitrate=1127.0kbits/s speed=16.6x    frame= 8177 fps=397 q=29.0 size=   47104kB time=00:05:41.33 bitrate=1130.5kbits/s speed=16.6x    frame= 8374 fps=397 q=29.0 size=   48384kB time=00:05:49.57 bitrate=1133.8kbits/s speed=16.6x    frame= 8565 fps=397 q=29.0 size=   49408kB time=00:05:57.81 bitrate=1131.2kbits/s speed=16.6x    frame= 8761 fps=397 q=29.0 size=   50432kB time=00:06:05.59 bitrate=1130.0kbits/s speed=16.6x    frame= 8960 fps=397 q=28.0 size=   51456kB time=00:06:13.95 bitrate=1127.2kbits/s speed=16.6x    frame= 9164 fps=397 q=28.0 size=   52224kB time=00:06:22.61 bitrate=1118.1kbits/s speed=16.6x    frame= 9349 fps=397 q=28.0 size=   53504kB time=00:06:30.44 bitrate=1122.6kbits/s speed=16.6x    frame= 9551 fps=397 q=28.0 size=   54784kB time=00:06:38.68 bitrate=1125.7kbits/s speed=16.6x    frame= 9754 fps=397 q=28.0 size=   55808kB time=00:06:47.39 bitrate=1122.2kbits/s speed=16.6x    frame= 9960 fps=397 q=28.0 size=   57088kB time=00:06:55.63 bitrate=1125.2kbits/s speed=16.6x    frame=10163 fps=397 q=29.0 size=   58368kB time=00:07:04.34 bitrate=1126.8kbits/s speed=16.6x    frame=10355 fps=397 q=29.0 size=   59648kB time=00:07:12.12 bitrate=1130.8kbits/s speed=16.6x    frame=10537 fps=396 q=29.0 size=   60672kB time=00:07:19.94 bitrate=1129.7kbits/s speed=16.6x    frame=10730 fps=396 q=29.0 size=   61952kB time=00:07:27.79 bitrate=1133.4kbits/s speed=16.5x    frame=10917 fps=396 q=29.0 size=   62720kB time=00:07:35.57 bitrate=1127.8kbits/s speed=16.5x    frame=11102 fps=395 q=29.0 size=   63744kB time=00:07:43.35 bitrate=1127.0kbits/s speed=16.5x    frame=11287 fps=395 q=28.0 size=   64768kB time=00:07:51.13 bitrate=1126.2kbits/s speed=16.5x    frame=11475 fps=394 q=28.0 size=   65792kB time=00:07:58.91 bitrate=1125.4kbits/s speed=16.5x    frame=11677 fps=395 q=28.0 size=   67072kB time=00:08:07.64 bitrate=1126.8kbits/s speed=16.5x    frame=11862 fps=394 q=28.0 size=   67840kB time=00:08:15.04 bitrate=1122.6kbits/s speed=16.5x    frame=12043 fps=394 q=29.0 size=   69120kB time=00:08:22.82 bitrate=1126.1kbits/s speed=16.4x    frame=12227 fps=393 q=29.0 size=   70400kB time=00:08:30.16 bitrate=1130.5kbits/s speed=16.4x    frame=12414 fps=393 q=29.0 size=   71424kB time=00:08:38.06 bitrate=1129.4kbits/s speed=16.4x    frame=12610 fps=393 q=28.0 size=   72192kB time=00:08:46.16 bitrate=1124.0kbits/s speed=16.4x    frame=12816 fps=393 q=28.0 size=   73472kB time=00:08:54.91 bitrate=1125.2kbits/s speed=16.4x    frame=13021 fps=393 q=28.0 size=   74752kB time=00:09:03.67 bitrate=1126.4kbits/s speed=16.4x    frame=13219 fps=393 q=28.0 size=   75520kB time=00:09:11.93 bitrate=1120.9kbits/s speed=16.4x    frame=13415 fps=393 q=28.0 size=   76544kB time=00:09:19.97 bitrate=1119.8kbits/s speed=16.4x    frame=13624 fps=394 q=28.0 size=   78080kB time=00:09:28.44 bitrate=1125.2kbits/s speed=16.4x    frame=13833 fps=394 q=28.0 size=   79360kB time=00:09:37.15 bitrate=1126.4kbits/s speed=16.4x    frame=14042 fps=394 q=28.0 size=   80384kB time=00:09:45.83 bitrate=1124.0kbits/s speed=16.5x    frame=14251 fps=395 q=28.0 size=   81664kB time=00:09:54.54 bitrate=1125.2kbits/s speed=16.5x    frame=14459 fps=395 q=28.0 size=   82688kB time=00:10:03.25 bitrate=1122.9kbits/s speed=16.5x    frame=14667 fps=395 q=28.0 size=   83968kB time=00:10:11.96 bitrate=1124.0kbits/s speed=16.5x    frame=14873 fps=396 q=28.0 size=   85248kB time=00:10:20.69 bitrate=1125.1kbits/s speed=16.5x    frame=15069 fps=395 q=28.0 size=   86272kB time=00:10:29.00 bitrate=1123.6kbits/s speed=16.5x    frame=15258 fps=395 q=28.0 size=   87296kB time=00:10:36.80 bitrate=1123.0kbits/s speed=16.5x    frame=15441 fps=395 q=29.0 size=   88576kB time=00:10:44.58 bitrate=1125.7kbits/s speed=16.5x    frame=15635 fps=395 q=28.0 size=   89856kB time=00:10:52.36 bitrate=1128.4kbits/s speed=16.5x    frame=15826 fps=395 q=28.0 size=   90368kB time=00:11:00.60 bitrate=1120.6kbits/s speed=16.5x    frame=16020 fps=395 q=28.0 size=   91904kB time=00:11:08.40 bitrate=1126.4kbits/s speed=16.5x    frame=16220 fps=395 q=29.0 size=   93184kB time=00:11:16.90 bitrate=1127.7kbits/s speed=16.5x    frame=16418 fps=395 q=29.0 size=   94464kB time=00:11:25.01 bitrate=1129.7kbits/s speed=16.5x    frame=16616 fps=395 q=29.0 size=   95744kB time=00:11:33.37 bitrate=1131.2kbits/s speed=16.5x    frame=16800 fps=394 q=29.0 size=   96768kB time=00:11:41.01 bitrate=1130.8kbits/s speed=16.5x    frame=16998 fps=394 q=29.0 size=   98048kB time=00:11:49.25 bitrate=1132.5kbits/s speed=16.5x    frame=17197 fps=394 q=29.0 size=   99072kB time=00:11:57.49 bitrate=1131.2kbits/s speed=16.5x    frame=17396 fps=394 q=29.0 size=  100096kB time=00:12:05.73 bitrate=1129.9kbits/s speed=16.5x    frame=17591 fps=394 q=29.0 size=  101120kB time=00:12:14.05 bitrate=1128.5kbits/s speed=16.5x    frame=17789 fps=394 q=28.0 size=  102144kB time=00:12:22.34 bitrate=1127.2kbits/s speed=16.5x    frame=17985 fps=394 q=28.0 size=  102912kB time=00:12:30.58 bitrate=1123.2kbits/s speed=16.5x    frame=18184 fps=394 q=28.0 size=  103936kB time=00:12:38.82 bitrate=1122.1kbits/s speed=16.5x    frame=18376 fps=394 q=28.0 size=  104960kB time=00:12:47.02 bitrate=1121.0kbits/s speed=16.5x    frame=18573 fps=394 q=28.0 size=  105984kB time=00:12:54.84 bitrate=1120.5kbits/s speed=16.4x    frame=18771 fps=394 q=28.0 size=  107520kB time=00:13:03.09 bitrate=1124.8kbits/s speed=16.4x    frame=18970 fps=394 q=28.0 size=  108544kB time=00:13:11.38 bitrate=1123.6kbits/s speed=16.4x    frame=19167 fps=394 q=28.0 size=  109824kB time=00:13:19.69 bitrate=1125.0kbits/s speed=16.4x    frame=19366 fps=394 q=29.0 size=  111360kB time=00:13:28.26 bitrate=1128.7kbits/s speed=16.5x    frame=19564 fps=394 q=29.0 size=  112384kB time=00:13:36.34 bitrate=1127.8kbits/s speed=16.5x    frame=19762 fps=394 q=27.0 size=  112640kB time=00:13:44.44 bitrate=1119.2kbits/s speed=16.4x    frame=19959 fps=394 q=27.0 size=  113408kB time=00:13:52.66 bitrate=1115.7kbits/s speed=16.4x    frame=20155 fps=394 q=27.0 size=  114688kB time=00:14:00.91 bitrate=1117.3kbits/s speed=16.4x    frame=20347 fps=394 q=27.0 size=  115968kB time=00:14:09.15 bitrate=1118.8kbits/s speed=16.4x    frame=20540 fps=394 q=28.0 size=  117248kB time=00:14:17.02 bitrate=1120.7kbits/s speed=16.4x    frame=20739 fps=394 q=28.0 size=  118272kB time=00:14:25.29 bitrate=1119.7kbits/s speed=16.4x    frame=20932 fps=394 q=28.0 size=  119552kB time=00:14:33.53 bitrate=1121.2kbits/s speed=16.4x    frame=21130 fps=394 q=28.0 size=  120832kB time=00:14:41.77 bitrate=1122.6kbits/s speed=16.4x    frame=21335 fps=394 q=28.0 size=  121856kB time=00:14:50.02 bitrate=1121.6kbits/s speed=16.4x    frame=21533 fps=394 q=28.0 size=  123392kB time=00:14:58.58 bitrate=1124.9kbits/s speed=16.4x    frame=21726 fps=394 q=29.0 size=  124928kB time=00:15:06.50 bitrate=1129.0kbits/s speed=16.4x    frame=21913 fps=394 q=29.0 size=  126208kB time=00:15:14.35 bitrate=1130.7kbits/s speed=16.4x    frame=22096 fps=394 q=29.0 size=  127488kB time=00:15:22.18 bitrate=1132.5kbits/s speed=16.4x    frame=22292 fps=394 q=29.0 size=  128768kB time=00:15:30.07 bitrate=1134.2kbits/s speed=16.4x    frame=22490 fps=394 q=29.0 size=  130048kB time=00:15:38.38 bitrate=1135.3kbits/s speed=16.4x    frame=22679 fps=394 q=29.0 size=  130816kB time=00:15:46.44 bitrate=1132.3kbits/s speed=16.4x    frame=22875 fps=393 q=29.0 size=  132352kB time=00:15:54.34 bitrate=1136.1kbits/s speed=16.4x    frame=23072 fps=393 q=29.0 size=  133376kB time=00:16:02.51 bitrate=1135.2kbits/s speed=16.4x    frame=23271 fps=394 q=29.0 size=  134400kB time=00:16:10.89 bitrate=1134.0kbits/s speed=16.4x    frame=23457 fps=393 q=29.0 size=  135424kB time=00:16:18.60 bitrate=1133.6kbits/s speed=16.4x    frame=23656 fps=393 q=29.0 size=  136448kB time=00:16:26.89 bitrate=1132.6kbits/s speed=16.4x    frame=23849 fps=393 q=29.0 size=  137728kB time=00:16:35.09 bitrate=1133.8kbits/s speed=16.4x    frame=24042 fps=393 q=29.0 size=  139008kB time=00:16:43.33 bitrate=1135.0kbits/s speed=16.4x    frame=24239 fps=393 q=30.0 size=  140288kB time=00:16:51.22 bitrate=1136.5kbits/s speed=16.4x    frame=24435 fps=393 q=29.0 size=  141056kB time=00:16:59.40 bitrate=1133.5kbits/s speed=16.4x    frame=24617 fps=393 q=29.0 size=  142080kB time=00:17:07.25 bitrate=1133.0kbits/s speed=16.4x    frame=24822 fps=393 q=29.0 size=  143360kB time=00:17:15.49 bitrate=1134.2kbits/s speed=16.4x    frame=25020 fps=393 q=30.0 size=  144640kB time=00:17:24.20 bitrate=1134.7kbits/s speed=16.4x    frame=25222 fps=393 q=29.0 size=  145664kB time=00:17:32.44 bitrate=1133.8kbits/s speed=16.4x    frame=25426 fps=393 q=29.0 size=  146688kB time=00:17:40.68 bitrate=1132.9kbits/s speed=16.4x    frame=25632 fps=393 q=29.0 size=  147712kB time=00:17:49.39 bitrate=1131.5kbits/s speed=16.4x    frame=25831 fps=393 q=29.0 size=  148736kB time=00:17:57.63 bitrate=1130.7kbits/s speed=16.4x    frame=26027 fps=393 q=29.0 size=  149760kB time=00:18:05.92 bitrate=1129.8kbits/s speed=16.4x    frame=26223 fps=393 q=29.0 size=  151040kB time=00:18:14.21 bitrate=1130.8kbits/s speed=16.4x    frame=26418 fps=393 q=29.0 size=  152320kB time=00:18:22.48 bitrate=1131.8kbits/s speed=16.4x    frame=26617 fps=393 q=29.0 size=  153088kB time=00:18:30.72 bitrate=1129.1kbits/s speed=16.4x    frame=26817 fps=394 q=29.0 size=  154624kB time=00:18:38.96 bitrate=1132.0kbits/s speed=16.4x    frame=27017 fps=394 q=29.0 size=  155136kB time=00:18:47.21 bitrate=1127.4kbits/s speed=16.4x    frame=27211 fps=394 q=28.0 size=  155392kB time=00:18:55.45 bitrate=1121.1kbits/s speed=16.4x    frame=27410 fps=394 q=28.0 size=  156672kB time=00:19:03.69 bitrate=1122.2kbits/s speed=16.4x    frame=27611 fps=394 q=27.0 size=  157440kB time=00:19:12.01 bitrate=1119.6kbits/s speed=16.4x    frame=27809 fps=394 q=27.0 size=  158464kB time=00:19:20.30 bitrate=1118.8kbits/s speed=16.4x    frame=28004 fps=394 q=27.0 size=  158976kB time=00:19:28.54 bitrate=1114.5kbits/s speed=16.4x    frame=28186 fps=393 q=26.0 size=  159744kB time=00:19:35.85 bitrate=1112.9kbits/s speed=16.4x    frame=28366 fps=393 q=26.0 size=  160512kB time=00:19:43.63 bitrate=1110.9kbits/s speed=16.4x    frame=28566 fps=393 q=25.0 size=  161024kB time=00:19:51.88 bitrate=1106.7kbits/s speed=16.4x    frame=28771 fps=393 q=23.0 size=  161280kB time=00:20:00.16 bitrate=1100.8kbits/s speed=16.4x    frame=28979 fps=393 q=23.0 size=  162304kB time=00:20:08.90 bitrate=1099.8kbits/s speed=16.4x    frame=29182 fps=394 q=23.0 size=  163840kB time=00:20:17.65 bitrate=1102.3kbits/s speed=16.4x    frame=29376 fps=393 q=23.0 size=  164608kB time=00:20:25.80 bitrate=1100.1kbits/s speed=16.4x    frame=29574 fps=393 q=23.0 size=  165632kB time=00:20:33.93 bitrate=1099.6kbits/s speed=16.4x    frame=29768 fps=393 q=22.0 size=  166400kB time=00:20:41.91 bitrate=1097.6kbits/s speed=16.4x    frame=29970 fps=394 q=22.0 size=  167680kB time=00:20:50.16 bitrate=1098.8kbits/s speed=16.4x    frame=30168 fps=394 q=22.0 size=  168704kB time=00:20:58.42 bitrate=1098.2kbits/s speed=16.4x    frame=30367 fps=394 q=22.0 size=  169728kB time=00:21:07.11 bitrate=1097.3kbits/s speed=16.4x    frame=30564 fps=394 q=22.0 size=  170752kB time=00:21:15.17 bitrate=1097.0kbits/s speed=16.4x    frame=30765 fps=394 q=22.0 size=  172032kB time=00:21:23.71 bitrate=1097.8kbits/s speed=16.4x    frame=30962 fps=394 q=22.0 size=  173312kB time=00:21:31.95 bitrate=1098.9kbits/s speed=16.4x    frame=31163 fps=394 q=22.0 size=  174336kB time=00:21:40.20 bitrate=1098.4kbits/s speed=16.4x    frame=31357 fps=394 q=22.0 size=  175360kB time=00:21:48.44 bitrate=1097.9kbits/s speed=16.4x    frame=31565 fps=394 q=22.0 size=  176640kB time=00:21:56.68 bitrate=1099.0kbits/s speed=16.4x    frame=31768 fps=394 q=22.0 size=  177408kB time=00:22:05.39 bitrate=1096.5kbits/s speed=16.4x    frame=31970 fps=394 q=22.0 size=  178432kB time=00:22:13.63 bitrate=1096.0kbits/s speed=16.4x    frame=32176 fps=394 q=21.0 size=  179712kB time=00:22:22.20 bitrate=1096.9kbits/s speed=16.4x    frame=32182 fps=394 q=-1.0 Lsize=  180951kB time=00:22:22.25 bitrate=1104.4kbits/s speed=16.4x    
video:159073kB audio:21119kB subtitle:0kB other streams:0kB global headers:0kB muxing overhead: 0.421088%
[libx264 @ 0x6188200] frame I:174   Avg QP:20.85  size: 22839
[libx264 @ 0x6188200] frame P:32008 Avg QP:24.28  size:  4965
[libx264 @ 0x6188200] mb I  I16..4: 14.3%  0.0% 85.7%
[libx264 @ 0x6188200] mb P  I16..4:  3.8%  0.0%  0.0%  P16..4: 77.9%  0.0%  0.0%  0.0%  0.0%    skip:18.3%
[libx264 @ 0x6188200] final ratefactor: 22.22
[libx264 @ 0x6188200] coded y,uvDC,uvAC intra: 60.0% 61.4% 33.9% inter: 40.9% 28.5% 6.6%
[libx264 @ 0x6188200] i16 v,h,dc,p: 29% 30% 20% 21%
[libx264 @ 0x6188200] i4 v,h,dc,ddl,ddr,vr,hd,vl,hu: 18% 20% 10%  9%  8%  8%  9%  7% 10%
[libx264 @ 0x6188200] i8c dc,h,v,p: 41% 28% 20% 11%
[libx264 @ 0x6188200] kb/s:970.84
[aac @ 0x617f040] Qavg: 169.280
